<?xml version="1.0" encoding="UTF-8"?>
<svg xmlns="http://www.w3.org/2000/svg" xmlns:xlink="http://www.w3.org/1999/xlink" width="480pt" height="480pt" viewBox="0 0 480 480" version="1.1">
<g id="surface820025">
<path style=" stroke:none;fill-rule:nonzero;fill:rgb(26.666667%,29.411765%,32.941176%);fill-opacity:1;" d="M 240 48 C 133.96875 48 48 133.96875 48 240 C 48 321.34375 98.609375 390.816406 170.03125 418.785156 C 168.351562 403.601562 166.832031 380.289062 170.703125 363.710938 C 174.191406 348.734375 193.214844 268.273438 193.214844 268.273438 C 193.214844 268.273438 187.472656 256.769531 187.472656 239.777344 C 187.472656 213.070312 202.945312 193.152344 222.207031 193.152344 C 238.59375 193.152344 246.496094 205.457031 246.496094 220.191406 C 246.496094 236.671875 236.015625 261.296875 230.59375 284.113281 C 226.0625 303.230469 240.175781 318.816406 259.023438 318.816406 C 293.152344 318.816406 319.375 282.832031 319.375 230.894531 C 319.375 184.929688 286.351562 152.785156 239.183594 152.785156 C 184.558594 152.785156 152.496094 193.761719 152.496094 236.113281 C 152.496094 252.609375 158.847656 270.304688 166.785156 279.9375 C 168.351562 281.839844 168.574219 283.503906 168.113281 285.441406 C 166.65625 291.503906 163.425781 304.542969 162.785156 307.214844 C 161.953125 310.734375 160 311.472656 156.367188 309.777344 C 132.382812 298.609375 117.390625 263.550781 117.390625 235.390625 C 117.390625 174.832031 161.390625 119.199219 244.257812 119.199219 C 310.863281 119.199219 362.625 166.65625 362.625 230.097656 C 362.625 296.273438 320.894531 349.519531 262.992188 349.519531 C 243.535156 349.519531 225.246094 339.40625 218.992188 327.472656 C 218.992188 327.472656 209.359375 364.128906 207.023438 373.121094 C 202.6875 389.792969 190.992188 410.703125 183.152344 423.457031 C 201.121094 428.992188 220.207031 432 240 432 C 346.03125 432 432 346.03125 432 240 C 432 133.96875 346.03125 48 240 48 Z M 240 48 "/>
</g>
</svg>
