<?xml version="1.0" encoding="UTF-8"?>
<svg xmlns="http://www.w3.org/2000/svg" xmlns:xlink="http://www.w3.org/1999/xlink" width="480pt" height="480pt" viewBox="0 0 480 480" version="1.1">
<g id="surface819945">
<path style=" stroke:none;fill-rule:nonzero;fill:rgb(26.666667%,29.411765%,32.941176%);fill-opacity:1;" d="M 159.96875 48 C 98.226562 48 48 98.269531 48 160.03125 L 48 320.03125 C 48 381.773438 98.269531 432 160.03125 432 L 320.03125 432 C 381.773438 432 432 381.730469 432 319.96875 L 432 159.96875 C 432 98.226562 381.730469 48 319.96875 48 Z M 352 112 C 360.832031 112 368 119.167969 368 128 C 368 136.832031 360.832031 144 352 144 C 343.167969 144 336 136.832031 336 128 C 336 119.167969 343.167969 112 352 112 Z M 240 144 C 292.945312 144 336 187.054688 336 240 C 336 292.945312 292.945312 336 240 336 C 187.054688 336 144 292.945312 144 240 C 144 187.054688 187.054688 144 240 144 Z M 240 176 C 204.652344 176 176 204.652344 176 240 C 176 275.347656 204.652344 304 240 304 C 275.347656 304 304 275.347656 304 240 C 304 204.652344 275.347656 176 240 176 Z M 240 176 "/>
</g>
</svg>
