<?xml version="1.0" encoding="UTF-8"?>
<svg xmlns="http://www.w3.org/2000/svg" xmlns:xlink="http://www.w3.org/1999/xlink" width="250pt" height="250pt" viewBox="0 0 250 250" version="1.1">
<g id="surface1500018">
<path style=" stroke:none;fill-rule:nonzero;fill:rgb(26.666667%,29.411765%,32.941176%);fill-opacity:1;" d="M 165 145 C 156.015625 145 150 152.578125 150 165 C 150 177.421875 154.453125 190.234375 165 190 C 176.09375 189.746094 180.097656 178.886719 180 165 C 179.921875 152.578125 173.964844 145 165 145 Z M 221.308594 85.332031 C 222.675781 78.613281 223.261719 54.824219 213.398438 30 C 213.398438 30 190.742188 32.480469 156.484375 55.996094 C 149.316406 54.003906 137.148438 53.007812 125 53.007812 C 112.851562 53.007812 100.703125 54.003906 93.496094 55.976562 C 59.257812 32.480469 36.621094 30 36.621094 30 C 26.738281 54.824219 27.226562 78.046875 28.691406 85.332031 C 17.089844 97.929688 10 113.046875 10 133.710938 C 10 223.535156 84.53125 224.980469 103.339844 224.980469 C 107.597656 224.980469 116.054688 224.980469 125 225 C 133.945312 224.980469 142.421875 224.980469 146.660156 224.980469 C 165.46875 224.980469 240 223.535156 240 133.710938 C 240 113.046875 232.910156 97.929688 221.308594 85.332031 Z M 125.703125 215 L 125 215 C 77.851562 215 40.78125 208.300781 40.78125 162.480469 C 40.78125 151.503906 44.667969 141.328125 53.867188 132.871094 C 69.21875 118.769531 95.175781 126.230469 124.648438 126.230469 C 124.765625 126.230469 125.253906 126.230469 125.351562 126.230469 C 154.824219 126.230469 180.800781 118.789062 196.152344 132.871094 C 205.351562 141.328125 209.21875 151.503906 209.21875 162.480469 C 209.21875 208.300781 172.851562 215 125.703125 215 Z M 85 145 C 76.035156 145 70 155.078125 70 167.5 C 70 179.921875 76.035156 190 85 190 C 93.984375 190 100 179.921875 100 167.5 C 100 155.078125 93.984375 145 85 145 Z M 85 145 "/>
</g>
</svg>
