<?xml version="1.0" encoding="UTF-8"?>
<svg xmlns="http://www.w3.org/2000/svg" xmlns:xlink="http://www.w3.org/1999/xlink" width="480pt" height="480pt" viewBox="0 0 480 480" version="1.1">
<g id="surface819814">
<path style=" stroke:none;fill-rule:nonzero;fill:rgb(26.666667%,29.411765%,32.941176%);fill-opacity:1;" d="M 240 48 C 133.96875 48 48 133.96875 48 240 C 48 336.257812 118.910156 415.742188 211.296875 429.632812 L 211.296875 290.878906 L 163.792969 290.878906 L 163.792969 240.414062 L 211.296875 240.414062 L 211.296875 206.832031 C 211.296875 151.230469 238.382812 126.832031 284.59375 126.832031 C 306.71875 126.832031 318.433594 128.480469 323.96875 129.214844 L 323.96875 173.265625 L 292.449219 173.265625 C 272.832031 173.265625 265.984375 191.871094 265.984375 212.832031 L 265.984375 240.414062 L 323.472656 240.414062 L 315.679688 290.878906 L 265.984375 290.878906 L 265.984375 430.03125 C 359.695312 417.328125 432 337.199219 432 240 C 432 133.96875 346.03125 48 240 48 Z M 240 48 "/>
</g>
</svg>
